<?xml version="1.0" encoding="utf-8" ?>
<svg baseProfile="tiny" height="137" version="1.2" width="335" xmlns="http://www.w3.org/2000/svg" xmlns:ev="http://www.w3.org/2001/xml-events" xmlns:xlink="http://www.w3.org/1999/xlink"><defs /><polygon fill="none" points="319.256,10.623 364.256,100.623 274.256,100.623" stroke="black" stroke-linejoin="round" stroke-width="2" transform="rotate(90, 274.256, 10.623)" /><text fill="black" font-family="Arial, sans-serif" font-size="26" x="186.256" y="43.865">+</text><text fill="black" font-family="Arial, sans-serif" font-size="26" x="188.256" y="83.865">-</text><polyline fill="none" points="44.256,35.623 64.256,35.623 69.256,45.623 74.256,25.623 79.256,45.623 84.256,25.623 89.256,45.623 94.256,25.623 99.256,35.623 184.256,35.623" stroke="black" stroke-linecap="round" stroke-linejoin="round" stroke-width="2" /><line stroke="black" stroke-width="2" x1="144.256" x2="114.256" y1="75.623" y2="75.623" /><line stroke="black" stroke-linecap="round" stroke-width="2" x1="129.256" x2="129.256" y1="35.623" y2="75.623" /><line stroke="black" stroke-linecap="round" stroke-width="2" x1="129.256" x2="129.256" y1="125.623" y2="85.623" /><line stroke="black" stroke-width="2" x1="114.256" x2="144.256" y1="85.623" y2="85.623" /><polyline fill="none" points="184.256,75.623 159.256,75.623 159.256,125.623 304.256,125.623 304.256,55.623" stroke="black" stroke-linecap="round" stroke-linejoin="round" stroke-width="2" /><line stroke="black" stroke-linecap="round" stroke-width="2" x1="274.256" x2="334.256" y1="55.623" y2="55.623" /><text fill="black" font-family="Arial, sans-serif" font-size="20" text-anchor="middle" x="79.942" y="17.794">1.48k</text><text fill="black" font-family="Arial, sans-serif" font-size="20" text-anchor="end" x="110.502" y="87.794">10n</text><circle cx="38.256" cy="35.623" fill="none" r="5" stroke="black" stroke-width="2" /><text fill="black" font-family="Arial, sans-serif" font-size="20" text-anchor="end" x="29.237" y="40.867">Vin</text><polygon fill="none" points="149,136 159,146 139,146" stroke="black" stroke-linejoin="round" stroke-width="2" transform="rotate(180, 139, 136)" /></svg>