<?xml version="1.0" encoding="utf-8" ?>
<svg baseProfile="tiny" height="311" version="1.2" width="1269" xmlns="http://www.w3.org/2000/svg" xmlns:ev="http://www.w3.org/2001/xml-events" xmlns:xlink="http://www.w3.org/1999/xlink"><g transform="translate(0 , 35)"><g transform="translate(0 , 24)"><defs /><text fill="black" font-family="Arial, sans-serif" font-size="20" text-anchor="end" x="30" y="12">Vin</text><circle cx="40" cy="6" fill="none" r="4" stroke="black" stroke-width="2" /></g><text fill="black" font-family="Arial, sans-serif" font-size="20" text-anchor="middle" x="89" y="15">13.90k</text><polyline fill="none" points="44,30 74,30 79,40 84,20 89,40 94,20 99,40 104,20 109,30 114,30 204,30" stroke="black" stroke-linecap="round" stroke-linejoin="round" stroke-width="2" /><text fill="black" font-family="Arial, sans-serif" font-size="20" text-anchor="end" x="124" y="80">10n</text><line stroke="black" stroke-linecap="round" stroke-width="2" x1="144" x2="144" y1="30" y2="70" /><line stroke="black" stroke-width="2" x1="129" x2="159" y1="70" y2="70" /><line stroke="black" stroke-width="2" x1="129" x2="159" y1="80" y2="80" /><line stroke="black" stroke-linecap="round" stroke-width="2" x1="144" x2="144" y1="120" y2="80" /><polygon fill="none" points="134,120 144,130 154,120" stroke="black" stroke-linejoin="round" stroke-width="2" /><text fill="black" font-family="Arial, sans-serif" font-size="26" text-anchor="middle" x="214" y="39">+</text><text fill="black" font-family="Arial, sans-serif" font-size="26" text-anchor="middle" x="214" y="78">-</text><polygon fill="none" points="204,5 204,95 294,55" stroke="black" stroke-linejoin="round" stroke-width="2" /><polyline fill="none" points="204,70 174,70 174,120 324,120 324,55 294,55" stroke="black" stroke-linecap="round" stroke-linejoin="round" stroke-width="2" /><circle cx="144" cy="30" fill="black" r="4" stroke="black" /><circle cx="324" cy="55" fill="black" r="4" stroke="black" /></g><text fill="black" font-family="Arial, sans-serif" font-size="20" text-anchor="middle" x="369" y="72">13.90k</text><text fill="black" font-family="Arial, sans-serif" font-size="20" text-anchor="middle" x="474" y="72">13.90k</text><polyline fill="none" points="324,90 354,90 359,100 364,80 369,100 374,80 379,100 384,80 389,90 394,90 454,90 459,90 464,100 469,80 474,100 479,80 484,100 489,80 494,90 584,90" stroke="black" stroke-linecap="round" stroke-linejoin="round" stroke-width="2" /><text fill="black" font-family="Arial, sans-serif" font-size="20" text-anchor="end" x="504" y="142">10n</text><line stroke="black" stroke-linecap="round" stroke-width="2" x1="524" x2="524" y1="90" y2="130" /><line stroke="black" stroke-width="2" x1="509" x2="539" y1="130" y2="130" /><line stroke="black" stroke-width="2" x1="509" x2="539" y1="140" y2="140" /><line stroke="black" stroke-linecap="round" stroke-width="2" x1="524" x2="524" y1="180" y2="140" /><polygon fill="none" points="514,180 524,190 534,180" stroke="black" stroke-linejoin="round" stroke-width="2" /><text fill="black" font-family="Arial, sans-serif" font-size="26" text-anchor="middle" x="594" y="99">+</text><text fill="black" font-family="Arial, sans-serif" font-size="26" text-anchor="middle" x="594" y="138">-</text><polygon fill="none" points="584,65 584,155 674,115" stroke="black" stroke-linejoin="round" stroke-width="2" /><polyline fill="none" points="584,130 554,130 554,180 609,180 614,190 619,170 624,190 629,170 634,190 639,170 644,180 704,180 704,35 629,35" stroke="black" stroke-linecap="round" stroke-linejoin="round" stroke-width="2" /><polyline fill="none" points="554,180 554,210 544,215 564,220 544,225 564,230 544,235 564,240 554,245 554,275" stroke="black" stroke-linecap="round" stroke-linejoin="round" stroke-width="2" /><polygon fill="none" points="544,275 554,285 564,275" stroke="black" stroke-linejoin="round" stroke-width="2" /><text fill="black" font-family="Arial, sans-serif" font-size="20" text-anchor="middle" x="629" y="210">13.82k</text><text fill="black" font-family="Arial, sans-serif" font-size="20" text-anchor="start" x="569" y="235">10k</text><line stroke="black" stroke-width="2" x1="629" x2="629" y1="50" y2="20" /><line stroke="black" stroke-width="2" x1="619" x2="619" y1="50" y2="20" /><polyline fill="none" points="424,90 424,35 619,35" stroke="black" stroke-linecap="round" stroke-linejoin="round" stroke-width="2" /><line stroke="black" stroke-linecap="round" stroke-width="2" x1="674" x2="704" y1="115" y2="115" /><text fill="black" font-family="Arial, sans-serif" font-size="20" text-anchor="middle" x="624" y="15">10n</text><circle cx="424" cy="90" fill="black" r="4" stroke="black" /><circle cx="524" cy="90" fill="black" r="4" stroke="black" /><circle cx="554" cy="180" fill="black" r="4" stroke="black" /><circle cx="704" cy="115" fill="black" r="4" stroke="black" /><text fill="black" font-family="Arial, sans-serif" font-size="20" text-anchor="middle" x="749" y="97">13.90k</text><text fill="black" font-family="Arial, sans-serif" font-size="20" text-anchor="middle" x="854" y="97">13.90k</text><polyline fill="none" points="704,115 734,115 739,125 744,105 749,125 754,105 759,125 764,105 769,115 774,115 834,115 839,115 844,125 849,105 854,125 859,105 864,125 869,105 874,115 964,115" stroke="black" stroke-linecap="round" stroke-linejoin="round" stroke-width="2" /><text fill="black" font-family="Arial, sans-serif" font-size="20" text-anchor="end" x="884" y="167">10n</text><line stroke="black" stroke-linecap="round" stroke-width="2" x1="904" x2="904" y1="115" y2="155" /><line stroke="black" stroke-width="2" x1="889" x2="919" y1="155" y2="155" /><line stroke="black" stroke-width="2" x1="889" x2="919" y1="165" y2="165" /><line stroke="black" stroke-linecap="round" stroke-width="2" x1="904" x2="904" y1="205" y2="165" /><polygon fill="none" points="894,205 904,215 914,205" stroke="black" stroke-linejoin="round" stroke-width="2" /><text fill="black" font-family="Arial, sans-serif" font-size="26" text-anchor="middle" x="974" y="124">+</text><text fill="black" font-family="Arial, sans-serif" font-size="26" text-anchor="middle" x="974" y="163">-</text><polygon fill="none" points="964,90 964,180 1054,140" stroke="black" stroke-linejoin="round" stroke-width="2" /><polyline fill="none" points="964,155 934,155 934,205 989,205 994,215 999,195 1004,215 1009,195 1014,215 1019,195 1024,205 1084,205 1084,60 1009,60" stroke="black" stroke-linecap="round" stroke-linejoin="round" stroke-width="2" /><polyline fill="none" points="934,205 934,235 924,240 944,245 924,250 944,255 924,260 944,265 934,270 934,300" stroke="black" stroke-linecap="round" stroke-linejoin="round" stroke-width="2" /><polygon fill="none" points="924,300 934,310 944,300" stroke="black" stroke-linejoin="round" stroke-width="2" /><text fill="black" font-family="Arial, sans-serif" font-size="20" text-anchor="middle" x="1009" y="235">3.82k</text><text fill="black" font-family="Arial, sans-serif" font-size="20" text-anchor="start" x="949" y="260">10k</text><line stroke="black" stroke-width="2" x1="1009" x2="1009" y1="75" y2="45" /><line stroke="black" stroke-width="2" x1="999" x2="999" y1="75" y2="45" /><polyline fill="none" points="804,115 804,60 999,60" stroke="black" stroke-linecap="round" stroke-linejoin="round" stroke-width="2" /><line stroke="black" stroke-linecap="round" stroke-width="2" x1="1054" x2="1084" y1="140" y2="140" /><text fill="black" font-family="Arial, sans-serif" font-size="20" text-anchor="middle" x="1004" y="40">10n</text><circle cx="804" cy="115" fill="black" r="4" stroke="black" /><circle cx="904" cy="115" fill="black" r="4" stroke="black" /><circle cx="934" cy="205" fill="black" r="4" stroke="black" /><circle cx="1084" cy="140" fill="black" r="4" stroke="black" /><text fill="black" font-family="Arial, sans-serif" font-size="20" text-anchor="middle" x="1129" y="125">32.92k</text><text fill="black" font-family="Arial, sans-serif" font-size="20" text-anchor="start" x="1199" y="195">14.36k</text><polyline fill="none" points="1084,140 1114,140 1119,150 1124,130 1129,150 1134,130 1139,150 1144,130 1149,140 1154,140 1184,140 1184,170 1174,175 1194,180 1174,185 1194,190 1174,195 1194,200 1184,205 1184,235" stroke="black" stroke-linecap="round" stroke-linejoin="round" stroke-width="2" /><polygon fill="none" points="1174,235 1184,245 1194,235" stroke="black" stroke-linejoin="round" stroke-width="2" /><circle cx="1184" cy="140" fill="black" r="4" stroke="black" /><line stroke="black" stroke-linecap="round" stroke-width="2" x1="1184" x2="1214" y1="140" y2="140" /><circle cx="1218" cy="140" fill="none" r="4" stroke="black" stroke-width="2" /><text fill="black" font-family="Arial, sans-serif" font-size="20" text-anchor="start" x="1224" y="145">Vout</text></svg>