<?xml version="1.0" encoding="utf-8" ?>
<svg baseProfile="tiny" height="311" version="1.2" width="989" xmlns="http://www.w3.org/2000/svg" xmlns:ev="http://www.w3.org/2001/xml-events" xmlns:xlink="http://www.w3.org/1999/xlink"><g transform="translate(0 , 84)"><defs /><text fill="black" font-family="Arial, sans-serif" font-size="20" text-anchor="end" x="30" y="12">Vin</text><circle cx="40" cy="6" fill="none" r="4" stroke="black" stroke-width="2" /></g><text fill="black" font-family="Arial, sans-serif" font-size="20" text-anchor="middle" x="89" y="72">16.02k</text><text fill="black" font-family="Arial, sans-serif" font-size="20" text-anchor="middle" x="194" y="72">16.02k</text><polyline fill="none" points="44,90 74,90 79,100 84,80 89,100 94,80 99,100 104,80 109,90 114,90 174,90 179,90 184,100 189,80 194,100 199,80 204,100 209,80 214,90 304,90" stroke="black" stroke-linecap="round" stroke-linejoin="round" stroke-width="2" /><text fill="black" font-family="Arial, sans-serif" font-size="20" text-anchor="end" x="224" y="142">10n</text><line stroke="black" stroke-linecap="round" stroke-width="2" x1="244" x2="244" y1="90" y2="130" /><line stroke="black" stroke-width="2" x1="229" x2="259" y1="130" y2="130" /><line stroke="black" stroke-width="2" x1="229" x2="259" y1="140" y2="140" /><line stroke="black" stroke-linecap="round" stroke-width="2" x1="244" x2="244" y1="180" y2="140" /><polygon fill="none" points="234,180 244,190 254,180" stroke="black" stroke-linejoin="round" stroke-width="2" /><text fill="black" font-family="Arial, sans-serif" font-size="26" text-anchor="middle" x="314" y="99">+</text><text fill="black" font-family="Arial, sans-serif" font-size="26" text-anchor="middle" x="314" y="138">-</text><polygon fill="none" points="304,65 304,155 394,115" stroke="black" stroke-linejoin="round" stroke-width="2" /><polyline fill="none" points="304,130 274,130 274,180 329,180 334,190 339,170 344,190 349,170 354,190 359,170 364,180 424,180 424,35 349,35" stroke="black" stroke-linecap="round" stroke-linejoin="round" stroke-width="2" /><polyline fill="none" points="274,180 274,210 264,215 284,220 264,225 284,230 264,235 284,240 274,245 274,275" stroke="black" stroke-linecap="round" stroke-linejoin="round" stroke-width="2" /><polygon fill="none" points="264,275 274,285 284,275" stroke="black" stroke-linejoin="round" stroke-width="2" /><text fill="black" font-family="Arial, sans-serif" font-size="20" text-anchor="middle" x="349" y="210">17.19k</text><text fill="black" font-family="Arial, sans-serif" font-size="20" text-anchor="start" x="289" y="235">10k</text><line stroke="black" stroke-width="2" x1="349" x2="349" y1="50" y2="20" /><line stroke="black" stroke-width="2" x1="339" x2="339" y1="50" y2="20" /><polyline fill="none" points="144,90 144,35 339,35" stroke="black" stroke-linecap="round" stroke-linejoin="round" stroke-width="2" /><line stroke="black" stroke-linecap="round" stroke-width="2" x1="394" x2="424" y1="115" y2="115" /><text fill="black" font-family="Arial, sans-serif" font-size="20" text-anchor="middle" x="344" y="15">10n</text><circle cx="144" cy="90" fill="black" r="4" stroke="black" /><circle cx="244" cy="90" fill="black" r="4" stroke="black" /><circle cx="274" cy="180" fill="black" r="4" stroke="black" /><circle cx="424" cy="115" fill="black" r="4" stroke="black" /><text fill="black" font-family="Arial, sans-serif" font-size="20" text-anchor="middle" x="469" y="97">30.11k</text><text fill="black" font-family="Arial, sans-serif" font-size="20" text-anchor="middle" x="574" y="97">30.11k</text><polyline fill="none" points="424,115 454,115 459,125 464,105 469,125 474,105 479,125 484,105 489,115 494,115 554,115 559,115 564,125 569,105 574,125 579,105 584,125 589,105 594,115 684,115" stroke="black" stroke-linecap="round" stroke-linejoin="round" stroke-width="2" /><text fill="black" font-family="Arial, sans-serif" font-size="20" text-anchor="end" x="604" y="167">10n</text><line stroke="black" stroke-linecap="round" stroke-width="2" x1="624" x2="624" y1="115" y2="155" /><line stroke="black" stroke-width="2" x1="609" x2="639" y1="155" y2="155" /><line stroke="black" stroke-width="2" x1="609" x2="639" y1="165" y2="165" /><line stroke="black" stroke-linecap="round" stroke-width="2" x1="624" x2="624" y1="205" y2="165" /><polygon fill="none" points="614,205 624,215 634,205" stroke="black" stroke-linejoin="round" stroke-width="2" /><text fill="black" font-family="Arial, sans-serif" font-size="26" text-anchor="middle" x="694" y="124">+</text><text fill="black" font-family="Arial, sans-serif" font-size="26" text-anchor="middle" x="694" y="163">-</text><polygon fill="none" points="684,90 684,180 774,140" stroke="black" stroke-linejoin="round" stroke-width="2" /><polyline fill="none" points="684,155 654,155 654,205 709,205 714,215 719,195 724,215 729,195 734,215 739,195 744,205 804,205 804,60 729,60" stroke="black" stroke-linecap="round" stroke-linejoin="round" stroke-width="2" /><polyline fill="none" points="654,205 654,235 644,240 664,245 644,250 664,255 644,260 664,265 654,270 654,300" stroke="black" stroke-linecap="round" stroke-linejoin="round" stroke-width="2" /><polygon fill="none" points="644,300 654,310 664,300" stroke="black" stroke-linejoin="round" stroke-width="2" /><text fill="black" font-family="Arial, sans-serif" font-size="20" text-anchor="middle" x="729" y="235">17.19k</text><text fill="black" font-family="Arial, sans-serif" font-size="20" text-anchor="start" x="669" y="260">10k</text><line stroke="black" stroke-width="2" x1="729" x2="729" y1="75" y2="45" /><line stroke="black" stroke-width="2" x1="719" x2="719" y1="75" y2="45" /><polyline fill="none" points="524,115 524,60 719,60" stroke="black" stroke-linecap="round" stroke-linejoin="round" stroke-width="2" /><line stroke="black" stroke-linecap="round" stroke-width="2" x1="774" x2="804" y1="140" y2="140" /><text fill="black" font-family="Arial, sans-serif" font-size="20" text-anchor="middle" x="724" y="40">10n</text><circle cx="524" cy="115" fill="black" r="4" stroke="black" /><circle cx="624" cy="115" fill="black" r="4" stroke="black" /><circle cx="654" cy="205" fill="black" r="4" stroke="black" /><circle cx="804" cy="140" fill="black" r="4" stroke="black" /><text fill="black" font-family="Arial, sans-serif" font-size="20" text-anchor="middle" x="849" y="125">46.91k</text><text fill="black" font-family="Arial, sans-serif" font-size="20" text-anchor="start" x="919" y="195">12.71k</text><polyline fill="none" points="804,140 834,140 839,150 844,130 849,150 854,130 859,150 864,130 869,140 874,140 904,140 904,170 894,175 914,180 894,185 914,190 894,195 914,200 904,205 904,235" stroke="black" stroke-linecap="round" stroke-linejoin="round" stroke-width="2" /><polygon fill="none" points="894,235 904,245 914,235" stroke="black" stroke-linejoin="round" stroke-width="2" /><circle cx="904" cy="140" fill="black" r="4" stroke="black" /><line stroke="black" stroke-linecap="round" stroke-width="2" x1="904" x2="934" y1="140" y2="140" /><circle cx="938" cy="140" fill="none" r="4" stroke="black" stroke-width="2" /><text fill="black" font-family="Arial, sans-serif" font-size="20" text-anchor="start" x="944" y="145">Vout</text></svg>